# xmcd CD database file generated by Grip 3.0.1
# 
# Track frame offsets:
#       150
#       26620
#       43972
#       71524
#       108795
#       135547
#       151939
#       168650
#       187082
#       205994
#       228305
#       247416
#       268686
#       291477
#       312589
#       338381
# 
# Disc length: 4776 seconds
# 
# Revision: 4
# Processed by: cddbd v1.4PL0 Copyright (c) Steve Scherf et al.
# Submitted via: Grip 3.0.1
# 
DISCID=f412a610
DTITLE=Dire Straits - Sultans of Swing
DYEAR=1900
DGENRE=Blues
TTITLE0=Sultans Of Swing
TTITLE1=Lady Writer
TTITLE2=Romeo and Juliet
TTITLE3=Tunnel of Love
TTITLE4=Private Investigations
TTITLE5=Twisting by the Pool
TTITLE6=Love Over Gold (Live)
TTITLE7=So Far Away
TTITLE8=Money for Nothing
TTITLE9=Brothers in Arms
TTITLE10=Walk of Life
TTITLE11=Calling Elvis
TTITLE12=Heavy Fuel
TTITLE13=On Every Street
TTITLE14=Your Latest Trick (Live)
TTITLE15=Local Hero - Wild Theme (Live)
EXTD=SULTANS OF SWING\nThe Very Best Of DIRE STRAITS ID3G:   0
EXTT0=
EXTT1=
EXTT2=
EXTT3=
EXTT4=
EXTT5=
EXTT6=
EXTT7=
EXTT8=
EXTT9=
EXTT10=
EXTT11=
EXTT12=
EXTT13=
EXTT14=
EXTT15=
PLAYORDER=
